<?xml version="1.0" standalone="no"?>
<!DOCTYPE svg PUBLIC "-//W3C//DTD SVG 20010904//EN"
 "http://www.w3.org/TR/2001/REC-SVG-20010904/DTD/svg10.dtd">
<svg version="1.0" xmlns="http://www.w3.org/2000/svg"
 width="700.000000pt" height="700.000000pt" viewBox="0 0 700.000000 700.000000"
 preserveAspectRatio="xMidYMid meet">
<metadata>
Created by potrace 1.11, written by Peter Selinger 2001-2013
</metadata>
<g transform="translate(0.000000,700.000000) scale(0.100000,-0.100000)"
fill="#000000" stroke="none">
<path d="M3468 6945 c-2 -1 -32 -5 -68 -8 -86 -8 -113 -14 -190 -39 -102 -33
-168 -67 -280 -145 -42 -29 -118 -105 -161 -160 -23 -29 -47 -53 -53 -53 -6 0
-24 7 -40 15 -43 23 -171 63 -235 75 -31 6 -67 12 -81 15 -32 7 -236 7 -273 0
-15 -3 -55 -10 -88 -16 -357 -62 -697 -353 -814 -696 -15 -43 -31 -82 -35 -87
-5 -5 -39 -10 -77 -12 -100 -5 -160 -13 -228 -30 -403 -102 -711 -413 -815
-823 -29 -115 -33 -346 -7 -471 31 -153 96 -304 182 -424 41 -58 155 -180 204
-219 17 -13 21 -25 17 -40 -44 -149 -49 -178 -50 -292 -2 -192 23 -299 101
-443 118 -218 306 -372 539 -441 113 -33 273 -46 364 -29 25 5 61 11 79 14 51
9 168 52 231 86 157 85 299 231 372 381 16 33 31 58 33 56 6 -7 95 -256 95
-268 0 -6 4 -19 10 -29 27 -49 170 -541 229 -792 54 -224 53 -221 56 -245 2
-11 17 -87 34 -170 27 -135 51 -269 66 -380 3 -22 10 -69 15 -105 11 -77 18
-135 25 -210 3 -30 8 -75 10 -100 15 -150 23 -276 30 -519 5 -170 8 -199 25
-227 38 -60 17 -59 809 -59 647 0 729 2 760 16 63 29 70 54 76 266 5 191 10
304 20 403 2 30 7 84 10 120 6 65 10 99 21 195 5 50 7 63 18 140 3 22 8 58 11
80 3 22 7 49 9 60 2 11 9 56 16 100 7 44 13 87 15 95 2 8 20 98 40 200 20 102
45 219 56 261 11 42 21 86 24 97 18 93 135 504 203 712 46 140 120 352 126
357 2 2 18 -25 36 -59 112 -211 282 -357 510 -436 47 -16 87 -30 90 -30 3 0
25 -3 51 -7 471 -71 917 235 1018 699 32 146 22 319 -26 473 l-16 52 29 23
c54 41 164 162 211 232 126 188 183 370 188 602 7 359 -135 657 -431 902 -29
23 -55 42 -59 42 -4 0 -19 9 -34 19 -49 35 -164 88 -246 114 -104 33 -180 46
-283 51 -46 2 -87 7 -91 12 -5 5 -16 34 -26 64 -67 207 -235 426 -425 552 -73
48 -116 70 -225 118 -11 5 -51 18 -90 29 -231 67 -492 54 -715 -36 -47 -19
-90 -39 -96 -44 -7 -6 -22 6 -43 37 -144 199 -401 348 -639 369 -37 4 -79 8
-94 10 -15 2 -28 2 -30 0z m-118 -3991 c104 -13 311 -6 373 12 22 7 22 -3 -3
-191 -10 -82 -22 -179 -26 -215 -3 -36 -13 -83 -22 -105 -40 -103 -160 -147
-259 -96 -68 34 -94 86 -108 216 -4 33 -8 70 -10 81 -2 12 -7 48 -10 80 -4 33
-9 67 -11 76 -1 10 -6 49 -10 89 -6 67 -6 71 12 66 10 -3 44 -9 74 -13z"/>
</g>
</svg>
